<?xml version="1.0" encoding="UTF-8" standalone="no"?>
<!DOCTYPE svg PUBLIC "-//W3C//DTD SVG 1.1//EN"
 "http://www.w3.org/Graphics/SVG/1.1/DTD/svg11.dtd">
<!-- Generated by graphviz version 2.50.0 (0)
 -->
<!-- Pages: 1 -->
<svg width="1286pt" height="217pt"
 viewBox="0.00 0.00 1286.00 216.74" xmlns="http://www.w3.org/2000/svg" xmlns:xlink="http://www.w3.org/1999/xlink">
<g id="graph0" class="graph" transform="scale(1 1) rotate(0) translate(4 212.74)">
<polygon fill="white" stroke="transparent" points="-4,4 -4,-212.74 1282,-212.74 1282,4 -4,4"/>
<text text-anchor="middle" x="639" y="-7.8" font-family="Times,serif" font-size="14.00">diagram</text>
<g id="clust1" class="cluster">
<title>cluster_7</title>
<polygon fill="none" stroke="black" points="8,-39.87 8,-114.87 334,-114.87 334,-39.87 8,-39.87"/>
<text text-anchor="middle" x="171" y="-99.67" font-family="Times,serif" font-size="14.00">UTxORef&#39;s wallet</text>
</g>
<g id="clust2" class="cluster">
<title>cluster_15</title>
<polygon fill="none" stroke="black" points="342,-31 342,-123.74 984,-123.74 984,-31 342,-31"/>
<text text-anchor="middle" x="663" y="-108.54" font-family="Times,serif" font-size="14.00">Alice&#39;s wallet</text>
</g>
<!-- 3 -->
<g id="node1" class="node">
<title>3</title>
<ellipse fill="none" stroke="black" cx="89" cy="-65.87" rx="72.59" ry="18"/>
<text text-anchor="middle" x="89" y="-62.17" font-family="Times,serif" font-size="14.00">AnythingElse</text>
</g>
<!-- 0 -->
<g id="node4" class="node">
<title>0</title>
<polygon fill="none" stroke="black" points="894.4,-179.28 894.4,-194.2 758.85,-204.74 567.15,-204.74 431.6,-194.2 431.6,-179.28 567.15,-168.74 758.85,-168.74 894.4,-179.28"/>
<polygon fill="none" stroke="black" points="898.4,-175.58 898.4,-197.9 759,-208.74 567,-208.74 427.6,-197.9 427.6,-175.58 567,-164.74 759,-164.74 898.4,-175.58"/>
<text text-anchor="middle" x="663" y="-183.04" font-family="Times,serif" font-size="14.00">UnderlyingMint Alice UTxORef token_name</text>
</g>
<!-- 3&#45;&gt;0 -->
<g id="edge4" class="edge">
<title>3&#45;&gt;0</title>
<path fill="none" stroke="black" d="M107.42,-83.4C123.15,-96.54 146.99,-114.25 171,-123.74 223.8,-144.61 352.79,-160.43 465.45,-170.87"/>
<polygon fill="black" stroke="black" points="465.33,-174.37 475.6,-171.8 465.97,-167.4 465.33,-174.37"/>
<text text-anchor="middle" x="277" y="-135.54" font-family="Times,serif" font-size="14.00">utxo</text>
</g>
<!-- 12 -->
<g id="node2" class="node">
<title>12</title>
<ellipse fill="none" stroke="black" cx="253" cy="-65.87" rx="72.59" ry="18"/>
<text text-anchor="middle" x="253" y="-62.17" font-family="Times,serif" font-size="14.00">AnythingElse</text>
</g>
<!-- 4 -->
<g id="node3" class="node">
<title>4</title>
<ellipse fill="none" stroke="black" cx="663" cy="-65.87" rx="313.5" ry="26.74"/>
<text text-anchor="middle" x="663" y="-69.67" font-family="Times,serif" font-size="14.00">Exactly 1 UnderlyingNFT Underlying UTxORef token_name</text>
<text text-anchor="middle" x="663" y="-54.67" font-family="Times,serif" font-size="14.00">MinimumRequiredAda</text>
</g>
<!-- 0&#45;&gt;12 -->
<g id="edge3" class="edge">
<title>0&#45;&gt;12</title>
<path fill="none" stroke="black" d="M508.47,-169.21C453.28,-159.97 391.55,-145.69 338,-123.74 317.49,-115.33 296.76,-101.59 280.91,-89.73"/>
<polygon fill="black" stroke="black" points="282.7,-86.69 272.64,-83.37 278.44,-92.24 282.7,-86.69"/>
<text text-anchor="middle" x="413" y="-135.54" font-family="Times,serif" font-size="14.00">utxo</text>
</g>
<!-- 0&#45;&gt;4 -->
<g id="edge1" class="edge">
<title>0&#45;&gt;4</title>
<path fill="none" stroke="black" d="M663,-164.49C663,-147.43 663,-123.09 663,-102.98"/>
<polygon fill="black" stroke="black" points="666.5,-102.92 663,-92.92 659.5,-102.92 666.5,-102.92"/>
<text text-anchor="middle" x="673.5" y="-135.54" font-family="Times,serif" font-size="14.00">nft</text>
</g>
<!-- 5 -->
<g id="node5" class="node">
<title>5</title>
<polygon fill="none" stroke="black" points="1049.27,-47.87 1202.73,-47.87 1257.38,-83.87 994.62,-83.87 1049.27,-47.87"/>
<text text-anchor="middle" x="1126" y="-62.17" font-family="Times,serif" font-size="14.00">NftMint UTxORef</text>
</g>
<!-- 0&#45;&gt;5 -->
<g id="edge2" class="edge">
<title>0&#45;&gt;5</title>
<path fill="none" stroke="black" d="M802.15,-165.57C860.24,-155.51 928.03,-141.62 988,-123.74 1023.76,-113.08 1062.95,-96.42 1090.4,-83.88"/>
<polygon fill="black" stroke="black" points="801.43,-162.14 792.17,-167.27 802.61,-169.04 801.43,-162.14"/>
<text text-anchor="middle" x="1115.5" y="-135.54" font-family="Times,serif" font-size="14.00">() @ mint 1 Underlying UTxORef token_name</text>
</g>
</g>
</svg>
